<svg width="670" height="469" viewBox="0 0 670 469" fill="none" xmlns="http://www.w3.org/2000/svg">
<path d="M401.114 220.636V324.574H488.472C517.236 324.574 537.655 319.01 549.729 307.884C561.921 296.638 568.017 283.026 568.017 267.045C568.017 254.735 564.88 243.371 558.607 232.955C552.333 222.42 543.396 214.015 531.796 207.741C520.195 201.349 506.464 198.153 490.602 198.153H401.114H335.08V159.801H401.114H482.79C496.047 159.801 508.003 157.197 518.656 151.989C529.428 146.78 537.951 139.441 544.224 129.972C550.617 120.502 553.813 109.375 553.813 96.5909C553.813 80.6108 548.249 67.0573 537.122 55.9304C525.995 44.6851 508.358 39.0625 484.21 39.0625H401.114V137.636H357.08V0H484.21C509.542 0 530.434 4.37973 546.888 13.1392C563.341 21.7803 575.593 33.4399 583.642 48.1179C591.691 62.6776 595.716 78.8352 595.716 96.5909C595.716 112.216 592.934 125.118 587.371 135.298C581.926 145.478 574.705 153.527 565.709 159.446C556.831 165.365 547.184 169.744 536.767 172.585V176.136C547.894 176.847 559.08 180.753 570.325 187.855C581.571 194.957 590.981 205.137 598.557 218.395C606.133 231.652 609.921 247.869 609.921 267.045C609.921 285.275 605.778 301.669 597.492 316.229C589.206 330.788 576.126 342.33 558.251 350.852C540.377 359.375 517.117 363.636 488.472 363.636H357.08V220.636H401.114Z" fill="#2A1F1B"/>
<path d="M268.886 220.636V324.574H181.528C152.764 324.574 132.345 319.01 120.271 307.884C108.079 296.638 101.983 283.026 101.983 267.045C101.983 254.735 105.12 243.371 111.393 232.955C117.667 222.42 126.604 214.015 138.204 207.741C149.805 201.349 163.536 198.153 179.398 198.153H268.886H335.92V159.801H268.886H187.21C173.953 159.801 161.997 157.197 151.344 151.989C140.572 146.78 132.049 139.441 125.776 129.972C119.383 120.502 116.187 109.375 116.187 96.5909C116.187 80.6108 121.751 67.0573 132.878 55.9304C144.005 44.6851 161.642 39.0625 185.79 39.0625H268.886V137.636H312.92V0H185.79C160.458 0 139.566 4.37973 123.112 13.1392C106.659 21.7803 94.4071 33.4399 86.3579 48.1179C78.3087 62.6776 74.284 78.8352 74.284 96.5909C74.284 112.216 77.0658 125.118 82.6292 135.298C88.0743 145.478 95.2949 153.527 104.291 159.446C113.169 165.365 122.816 169.744 133.233 172.585V176.136C122.106 176.847 110.92 180.753 99.6747 187.855C88.4294 194.957 79.0189 205.137 71.4431 218.395C63.8674 231.652 60.0795 247.869 60.0795 267.045C60.0795 285.275 64.2225 301.669 72.5085 316.229C80.7944 330.788 93.8745 342.33 111.749 350.852C129.623 359.375 152.883 363.636 181.528 363.636H312.92V220.636H268.886Z" fill="#2A1F1B"/>
<path d="M5.63636 453.636V407.091H21.9091C25.1515 407.091 27.8258 407.652 29.9318 408.773C32.0379 409.879 33.6061 411.371 34.6364 413.25C35.6667 415.114 36.1818 417.182 36.1818 419.455C36.1818 421.455 35.8258 423.106 35.1136 424.409C34.4167 425.712 33.4924 426.742 32.3409 427.5C31.2045 428.258 29.9697 428.818 28.6364 429.182V429.636C30.0606 429.727 31.4924 430.227 32.9318 431.136C34.3712 432.046 35.5758 433.349 36.5455 435.046C37.5152 436.742 38 438.818 38 441.273C38 443.606 37.4697 445.705 36.4091 447.568C35.3485 449.432 33.6742 450.909 31.3864 452C29.0985 453.091 26.1212 453.636 22.4545 453.636H5.63636ZM11.2727 448.636H22.4545C26.1364 448.636 28.75 447.924 30.2955 446.5C31.8561 445.061 32.6364 443.318 32.6364 441.273C32.6364 439.697 32.2348 438.242 31.4318 436.909C30.6288 435.561 29.4848 434.485 28 433.682C26.5152 432.864 24.7576 432.455 22.7273 432.455H11.2727V448.636ZM11.2727 427.546H21.7273C23.4242 427.546 24.9545 427.212 26.3182 426.546C27.697 425.879 28.7879 424.939 29.5909 423.727C30.4091 422.515 30.8182 421.091 30.8182 419.455C30.8182 417.409 30.1061 415.674 28.6818 414.25C27.2576 412.811 25 412.091 21.9091 412.091H11.2727V427.546ZM77.8068 407.091H83.4432V437.909C83.4432 441.091 82.6932 443.932 81.1932 446.432C79.7083 448.917 77.6099 450.879 74.8977 452.318C72.1856 453.742 69.0038 454.455 65.3523 454.455C61.7008 454.455 58.5189 453.742 55.8068 452.318C53.0947 450.879 50.9886 448.917 49.4886 446.432C48.0038 443.932 47.2614 441.091 47.2614 437.909V407.091H52.8977V437.455C52.8977 439.727 53.3977 441.75 54.3977 443.523C55.3977 445.28 56.822 446.667 58.6705 447.682C60.5341 448.682 62.7614 449.182 65.3523 449.182C67.9432 449.182 70.1705 448.682 72.0341 447.682C73.8977 446.667 75.322 445.28 76.3068 443.523C77.3068 441.75 77.8068 439.727 77.8068 437.455V407.091ZM94.6989 453.636V407.091H110.426C114.063 407.091 117.047 407.712 119.381 408.955C121.714 410.182 123.441 411.871 124.562 414.023C125.684 416.174 126.244 418.621 126.244 421.364C126.244 424.106 125.684 426.538 124.562 428.659C123.441 430.78 121.722 432.447 119.403 433.659C117.085 434.856 114.123 435.455 110.517 435.455H97.7898V430.364H110.335C112.82 430.364 114.82 430 116.335 429.273C117.866 428.546 118.972 427.515 119.653 426.182C120.35 424.833 120.699 423.227 120.699 421.364C120.699 419.5 120.35 417.871 119.653 416.477C118.956 415.083 117.843 414.008 116.312 413.25C114.782 412.477 112.759 412.091 110.244 412.091H100.335V453.636H94.6989ZM116.608 432.727L128.062 453.636H121.517L110.244 432.727H116.608ZM167.455 421.636C166.955 420.106 166.295 418.735 165.477 417.523C164.674 416.296 163.712 415.25 162.591 414.386C161.485 413.523 160.227 412.864 158.818 412.409C157.409 411.955 155.864 411.727 154.182 411.727C151.424 411.727 148.917 412.439 146.659 413.864C144.402 415.288 142.606 417.386 141.273 420.159C139.939 422.932 139.273 426.333 139.273 430.364C139.273 434.394 139.947 437.796 141.295 440.568C142.644 443.341 144.47 445.439 146.773 446.864C149.076 448.288 151.667 449 154.545 449C157.212 449 159.561 448.432 161.591 447.296C163.636 446.144 165.227 444.523 166.364 442.432C167.515 440.326 168.091 437.849 168.091 435L169.818 435.364H155.818V430.364H173.545V435.364C173.545 439.197 172.727 442.53 171.091 445.364C169.47 448.197 167.227 450.394 164.364 451.955C161.515 453.5 158.242 454.273 154.545 454.273C150.424 454.273 146.803 453.303 143.682 451.364C140.576 449.424 138.152 446.667 136.409 443.091C134.682 439.515 133.818 435.273 133.818 430.364C133.818 426.682 134.311 423.371 135.295 420.432C136.295 417.477 137.705 414.962 139.523 412.886C141.341 410.811 143.492 409.22 145.977 408.114C148.462 407.008 151.197 406.455 154.182 406.455C156.636 406.455 158.924 406.826 161.045 407.568C163.182 408.296 165.083 409.333 166.75 410.682C168.432 412.015 169.833 413.614 170.955 415.477C172.076 417.326 172.848 419.379 173.273 421.636H167.455ZM183.199 453.636V407.091H211.29V412.091H188.835V427.818H209.835V432.818H188.835V448.636H211.653V453.636H183.199ZM221.449 453.636V407.091H237.176C240.813 407.091 243.797 407.712 246.131 408.955C248.464 410.182 250.191 411.871 251.312 414.023C252.434 416.174 252.994 418.621 252.994 421.364C252.994 424.106 252.434 426.538 251.312 428.659C250.191 430.78 248.472 432.447 246.153 433.659C243.835 434.856 240.873 435.455 237.267 435.455H224.54V430.364H237.085C239.57 430.364 241.57 430 243.085 429.273C244.616 428.546 245.722 427.515 246.403 426.182C247.1 424.833 247.449 423.227 247.449 421.364C247.449 419.5 247.1 417.871 246.403 416.477C245.706 415.083 244.593 414.008 243.062 413.25C241.532 412.477 239.509 412.091 236.994 412.091H227.085V453.636H221.449ZM243.358 432.727L254.812 453.636H248.267L236.994 432.727H243.358ZM292.841 454.273C289.78 454.273 287.144 453.712 284.932 452.591C282.72 451.47 281.015 449.932 279.818 447.977C278.621 446.023 278.023 443.788 278.023 441.273C278.023 439.333 278.432 437.614 279.25 436.114C280.083 434.599 281.227 433.197 282.682 431.909C284.152 430.606 285.841 429.303 287.75 428L294.477 423C295.795 422.136 296.848 421.212 297.636 420.227C298.439 419.242 298.841 417.955 298.841 416.364C298.841 415.182 298.318 414.038 297.273 412.932C296.242 411.826 294.886 411.273 293.205 411.273C292.023 411.273 290.977 411.576 290.068 412.182C289.174 412.773 288.47 413.53 287.955 414.455C287.455 415.364 287.205 416.303 287.205 417.273C287.205 418.364 287.5 419.47 288.091 420.591C288.697 421.697 289.462 422.833 290.386 424C291.326 425.152 292.295 426.333 293.295 427.546L314.659 453.636H308.205L290.568 432.364C288.932 430.394 287.447 428.606 286.114 427C284.78 425.394 283.72 423.811 282.932 422.25C282.144 420.689 281.75 419 281.75 417.182C281.75 415.091 282.212 413.258 283.136 411.682C284.076 410.091 285.386 408.856 287.068 407.977C288.765 407.083 290.75 406.636 293.023 406.636C295.356 406.636 297.364 407.091 299.045 408C300.727 408.894 302.023 410.083 302.932 411.568C303.841 413.038 304.295 414.636 304.295 416.364C304.295 418.591 303.742 420.523 302.636 422.159C301.53 423.796 300.023 425.318 298.114 426.727L288.841 433.636C286.75 435.182 285.333 436.682 284.591 438.136C283.848 439.591 283.477 440.636 283.477 441.273C283.477 442.727 283.856 444.083 284.614 445.341C285.371 446.599 286.439 447.614 287.818 448.386C289.197 449.159 290.811 449.546 292.659 449.546C294.417 449.546 296.129 449.174 297.795 448.432C299.462 447.674 300.97 446.583 302.318 445.159C303.682 443.735 304.758 442.023 305.545 440.023C306.348 438.023 306.75 435.773 306.75 433.273H311.932C311.932 436.364 311.576 438.886 310.864 440.841C310.152 442.796 309.348 444.326 308.455 445.432C307.561 446.538 306.841 447.364 306.295 447.909C306.114 448.136 305.947 448.364 305.795 448.591C305.644 448.818 305.477 449.046 305.295 449.273C303.795 450.955 301.902 452.212 299.614 453.046C297.326 453.864 295.068 454.273 292.841 454.273ZM339.324 453.636V407.091H355.597C358.839 407.091 361.513 407.652 363.619 408.773C365.725 409.879 367.294 411.371 368.324 413.25C369.354 415.114 369.869 417.182 369.869 419.455C369.869 421.455 369.513 423.106 368.801 424.409C368.104 425.712 367.18 426.742 366.028 427.5C364.892 428.258 363.657 428.818 362.324 429.182V429.636C363.748 429.727 365.18 430.227 366.619 431.136C368.059 432.046 369.263 433.349 370.233 435.046C371.203 436.742 371.688 438.818 371.688 441.273C371.688 443.606 371.157 445.705 370.097 447.568C369.036 449.432 367.362 450.909 365.074 452C362.786 453.091 359.809 453.636 356.142 453.636H339.324ZM344.96 448.636H356.142C359.824 448.636 362.438 447.924 363.983 446.5C365.544 445.061 366.324 443.318 366.324 441.273C366.324 439.697 365.922 438.242 365.119 436.909C364.316 435.561 363.172 434.485 361.688 433.682C360.203 432.864 358.445 432.455 356.415 432.455H344.96V448.636ZM344.96 427.546H355.415C357.112 427.546 358.642 427.212 360.006 426.546C361.384 425.879 362.475 424.939 363.278 423.727C364.097 422.515 364.506 421.091 364.506 419.455C364.506 417.409 363.794 415.674 362.369 414.25C360.945 412.811 358.688 412.091 355.597 412.091H344.96V427.546ZM382.858 453.636H376.949L394.04 407.091H399.858L416.949 453.636H411.04L397.131 414.455H396.767L382.858 453.636ZM385.04 435.455H408.858V440.455H385.04V435.455ZM453.83 421.636C453.33 420.106 452.67 418.735 451.852 417.523C451.049 416.296 450.087 415.25 448.966 414.386C447.86 413.523 446.602 412.864 445.193 412.409C443.784 411.955 442.239 411.727 440.557 411.727C437.799 411.727 435.292 412.439 433.034 413.864C430.777 415.288 428.981 417.386 427.648 420.159C426.314 422.932 425.648 426.333 425.648 430.364C425.648 434.394 426.322 437.796 427.67 440.568C429.019 443.341 430.845 445.439 433.148 446.864C435.451 448.288 438.042 449 440.92 449C443.587 449 445.936 448.432 447.966 447.296C450.011 446.144 451.602 444.523 452.739 442.432C453.89 440.326 454.466 437.849 454.466 435L456.193 435.364H442.193V430.364H459.92V435.364C459.92 439.197 459.102 442.53 457.466 445.364C455.845 448.197 453.602 450.394 450.739 451.955C447.89 453.5 444.617 454.273 440.92 454.273C436.799 454.273 433.178 453.303 430.057 451.364C426.951 449.424 424.527 446.667 422.784 443.091C421.057 439.515 420.193 435.273 420.193 430.364C420.193 426.682 420.686 423.371 421.67 420.432C422.67 417.477 424.08 414.962 425.898 412.886C427.716 410.811 429.867 409.22 432.352 408.114C434.837 407.008 437.572 406.455 440.557 406.455C443.011 406.455 445.299 406.826 447.42 407.568C449.557 408.296 451.458 409.333 453.125 410.682C454.807 412.015 456.208 413.614 457.33 415.477C458.451 417.326 459.223 419.379 459.648 421.636H453.83ZM500.119 407.091H505.756V437.909C505.756 441.091 505.006 443.932 503.506 446.432C502.021 448.917 499.922 450.879 497.21 452.318C494.498 453.742 491.316 454.455 487.665 454.455C484.013 454.455 480.831 453.742 478.119 452.318C475.407 450.879 473.301 448.917 471.801 446.432C470.316 443.932 469.574 441.091 469.574 437.909V407.091H475.21V437.455C475.21 439.727 475.71 441.75 476.71 443.523C477.71 445.28 479.134 446.667 480.983 447.682C482.847 448.682 485.074 449.182 487.665 449.182C490.256 449.182 492.483 448.682 494.347 447.682C496.21 446.667 497.634 445.28 498.619 443.523C499.619 441.75 500.119 439.727 500.119 437.455V407.091ZM517.011 453.636V407.091H545.102V412.091H522.648V427.818H543.648V432.818H522.648V448.636H545.466V453.636H517.011ZM552.716 412.091V407.091H587.625V412.091H572.989V453.636H567.352V412.091H552.716ZM593.778 412.091V407.091H628.688V412.091H614.051V453.636H608.415V412.091H593.778ZM637.386 453.636V407.091H665.477V412.091H643.023V427.818H664.023V432.818H643.023V448.636H665.841V453.636H637.386Z" fill="#2A1F1B"/>
</svg>
