<svg width="1026" height="273" viewBox="0 0 1026 273" fill="none" xmlns="http://www.w3.org/2000/svg">
<path d="M189.631 0.0012207V103.229H156.605V29.2981H94.2832C76.1724 29.2981 62.9438 33.5155 54.5986 41.9495C46.2537 50.2946 42.0811 60.4596 42.0811 72.4446C42.0811 82.0326 44.4785 90.3775 49.2725 97.4797C53.9777 104.582 60.3695 110.086 68.4482 113.992C76.4382 117.899 85.4046 119.852 95.3477 119.852H317.033C326.976 119.852 335.943 117.899 343.933 113.992C352.011 110.086 358.403 104.582 363.108 97.4797C367.902 90.3775 370.3 82.0326 370.3 72.4446C370.3 60.4596 366.127 50.2946 357.782 41.9495C349.437 33.5155 336.208 29.2981 318.098 29.2981H255.775V103.229H222.75V0.0012207H318.098C337.096 0.0012207 352.766 3.2861 365.106 9.85571C377.447 16.3365 386.635 25.0816 392.672 36.0901C398.709 47.0097 401.728 59.1279 401.728 72.4446C401.728 84.1632 399.641 93.84 395.469 101.475C391.385 109.11 385.969 115.147 379.222 119.586C372.563 124.025 365.328 127.309 357.516 129.44V132.104C365.861 132.636 374.251 135.566 382.685 140.893C391.118 146.22 398.177 153.854 403.858 163.797C409.54 173.74 412.381 185.903 412.381 200.285C412.381 213.957 409.274 226.253 403.06 237.173C396.845 248.093 387.034 256.749 373.629 263.141C360.223 269.533 342.778 272.729 321.294 272.729H222.75V165.479H255.775V243.432H321.294C342.867 243.432 358.182 239.259 367.237 230.914C376.381 222.48 380.953 212.27 380.953 200.285C380.953 191.052 378.601 182.53 373.896 174.717C369.19 166.816 362.487 160.512 353.787 155.807C345.087 151.013 334.789 148.617 322.893 148.616H89.4883C77.5922 148.617 67.2939 151.013 58.5938 155.807C49.8935 160.512 43.1906 166.816 38.4854 174.717C33.7801 182.53 31.4277 191.052 31.4277 200.285C31.4278 212.27 35.9994 222.48 45.1436 230.914C54.199 239.259 69.5138 243.432 91.0869 243.432H156.605V165.479H189.631V272.729H91.0869C69.6027 272.729 52.1575 269.533 38.752 263.141C25.3464 256.749 15.5358 248.093 9.32129 237.173C3.10682 226.253 1.38716e-05 213.957 0 200.285C0 185.903 2.84065 173.74 8.52246 163.797C14.2042 153.854 21.2624 146.22 29.6963 140.893C38.1302 135.566 46.5201 132.636 54.8652 132.104V129.44C47.0529 127.309 39.8174 124.025 33.1592 119.586C26.412 115.147 20.9959 109.11 16.9121 101.475C12.7396 93.84 10.6533 84.1632 10.6533 72.4446C10.6533 59.1279 13.6722 47.0097 19.709 36.0901C25.7459 25.0816 34.9343 16.3365 47.2744 9.85571C59.6146 3.2861 75.2846 0.0012207 94.2832 0.0012207H189.631Z" fill="#2A1F1B"/>
<line x1="450.631" y1="-1.63918e-07" x2="450.631" y2="272.73" stroke="#2A1F1B" stroke-width="7.5"/>
<path d="M490.496 111.365V36.0923H516.812C522.056 36.0923 526.38 36.9989 529.786 38.8121C533.192 40.6008 535.728 43.0143 537.394 46.0527C539.061 49.0665 539.894 52.4112 539.894 56.0866C539.894 59.321 539.318 61.9918 538.166 64.099C537.039 66.2063 535.544 67.8724 533.682 69.0976C531.844 70.3227 529.847 71.2293 527.691 71.8174V72.5525C529.994 72.6995 532.31 73.5081 534.638 74.9783C536.966 76.4484 538.914 78.5557 540.482 81.3C542.05 84.0443 542.834 87.4012 542.834 91.3707C542.834 95.1441 541.976 98.5378 540.261 101.552C538.546 104.565 535.838 106.954 532.138 108.719C528.439 110.483 523.624 111.365 517.694 111.365H490.496ZM499.611 103.279H517.694C523.648 103.279 527.875 102.127 530.374 99.8242C532.898 97.4964 534.16 94.6786 534.16 91.3707C534.16 88.8224 533.511 86.4701 532.212 84.3139C530.913 82.1331 529.063 80.3934 526.662 79.0947C524.261 77.7716 521.419 77.11 518.135 77.11H499.611V103.279ZM499.611 69.1711H516.518C519.262 69.1711 521.737 68.632 523.942 67.5539C526.172 66.4758 527.936 64.9566 529.235 62.9964C530.558 61.0362 531.22 58.7329 531.22 56.0866C531.22 52.7787 530.068 49.9731 527.765 47.6699C525.461 45.3421 521.811 44.1782 516.812 44.1782H499.611V69.1711ZM607.209 36.0923H616.324V85.931C616.324 91.0766 615.111 95.6709 612.685 99.7139C610.284 103.732 606.891 106.905 602.505 109.233C598.119 111.537 592.973 112.688 587.068 112.688C581.163 112.688 576.017 111.537 571.631 109.233C567.245 106.905 563.839 103.732 561.413 99.7139C559.012 95.6709 557.811 91.0766 557.811 85.931V36.0923H566.926V85.196C566.926 88.8714 567.735 92.1425 569.352 95.0093C570.969 97.8517 573.273 100.094 576.262 101.735C579.276 103.353 582.878 104.161 587.068 104.161C591.258 104.161 594.86 103.353 597.873 101.735C600.887 100.094 603.191 97.8517 604.783 95.0093C606.4 92.1425 607.209 88.8714 607.209 85.196V36.0923ZM634.527 111.365V36.0923H659.961C665.841 36.0923 670.668 37.0969 674.442 39.1061C678.215 41.0908 681.009 43.8229 682.822 47.3023C684.635 50.7817 685.542 54.7389 685.542 59.1739C685.542 63.609 684.635 67.5417 682.822 70.9721C681.009 74.4025 678.227 77.0978 674.479 79.058C670.73 80.9937 665.939 81.9616 660.108 81.9616H639.525V73.7286H659.814C663.832 73.7286 667.066 73.1406 669.517 71.9644C671.992 70.7883 673.78 69.1221 674.883 66.9658C676.01 64.7851 676.574 62.1878 676.574 59.1739C676.574 56.1601 676.01 53.526 674.883 51.2718C673.756 49.0175 671.955 47.2778 669.48 46.0527C667.005 44.803 663.734 44.1782 659.667 44.1782H643.642V111.365H634.527ZM669.958 77.5511L688.482 111.365H677.897L659.667 77.5511H669.958ZM752.186 59.615C751.378 57.1402 750.312 54.9227 748.989 52.9625C747.69 50.9777 746.134 49.287 744.321 47.8904C742.532 46.4937 740.498 45.4278 738.22 44.6928C735.941 43.9577 733.442 43.5901 730.722 43.5901C726.262 43.5901 722.207 44.7418 718.556 47.045C714.905 49.3483 712.002 52.7419 709.845 57.226C707.689 61.71 706.611 67.2109 706.611 73.7286C706.611 80.2464 707.701 85.7473 709.882 90.2313C712.063 94.7153 715.015 98.109 718.74 100.412C722.464 102.715 726.654 103.867 731.31 103.867C735.622 103.867 739.42 102.948 742.704 101.111C746.012 99.2483 748.584 96.6265 750.422 93.2451C752.284 89.8392 753.215 85.833 753.215 81.2265L756.009 81.8146H733.368V73.7286H762.036V81.8146C762.036 88.0138 760.713 93.4044 758.067 97.9864C755.445 102.568 751.819 106.121 747.188 108.645C742.581 111.144 737.289 112.394 731.31 112.394C724.645 112.394 718.789 110.826 713.741 107.69C708.718 104.553 704.798 100.094 701.98 94.311C699.187 88.5283 697.79 81.6675 697.79 73.7286C697.79 67.7744 698.586 62.4206 700.179 57.667C701.796 52.889 704.075 48.8215 707.015 45.4646C709.956 42.1077 713.435 39.5349 717.453 37.7462C721.472 35.9575 725.895 35.0631 730.722 35.0631C734.691 35.0631 738.391 35.6635 741.822 36.8641C745.276 38.0402 748.352 39.7187 751.047 41.8994C753.767 44.0557 756.033 46.6407 757.846 49.6546C759.66 52.6439 760.909 55.9641 761.595 59.615H752.186ZM777.648 111.365V36.0923H823.076V44.1782H786.763V69.6121H820.724V77.6981H786.763V103.279H823.664V111.365H777.648ZM839.505 111.365V36.0923H864.939C870.82 36.0923 875.647 37.0969 879.42 39.1061C883.194 41.0908 885.987 43.8229 887.8 47.3023C889.614 50.7817 890.52 54.7389 890.52 59.1739C890.52 63.609 889.614 67.5417 887.8 70.9721C885.987 74.4025 883.206 77.0978 879.457 79.058C875.708 80.9937 870.918 81.9616 865.086 81.9616H844.504V73.7286H864.792C868.811 73.7286 872.045 73.1406 874.495 71.9644C876.97 70.7883 878.759 69.1221 879.861 66.9658C880.989 64.7851 881.552 62.1878 881.552 59.1739C881.552 56.1601 880.989 53.526 879.861 51.2718C878.734 49.0175 876.933 47.2778 874.458 46.0527C871.984 44.803 868.713 44.1782 864.645 44.1782H848.62V111.365H839.505ZM874.936 77.5511L893.46 111.365H882.875L864.645 77.5511H874.936ZM954.96 112.394C950.01 112.394 945.746 111.488 942.169 109.674C938.592 107.861 935.835 105.374 933.899 102.213C931.964 99.0523 930.996 95.4381 930.996 91.3707C930.996 88.2343 931.657 85.4532 932.98 83.0275C934.328 80.5772 936.178 78.3107 938.53 76.2279C940.907 74.1207 943.639 72.0134 946.727 69.9062L957.606 61.8202C959.738 60.4236 961.441 58.9289 962.715 57.3362C964.013 55.7435 964.663 53.6608 964.663 51.088C964.663 49.1768 963.817 47.3268 962.127 45.5381C960.46 43.7494 958.267 42.855 955.548 42.855C953.636 42.855 951.946 43.3451 950.475 44.3252C949.03 45.2808 947.89 46.506 947.057 48.0006C946.249 49.4708 945.844 50.99 945.844 52.5582C945.844 54.3224 946.322 56.1111 947.278 57.9243C948.258 59.713 949.495 61.5507 950.99 63.4374C952.509 65.2996 954.077 67.2109 955.695 69.1711L990.244 111.365H979.805L951.284 76.963C948.638 73.7776 946.237 70.8863 944.08 68.289C941.924 65.6917 940.209 63.1311 938.935 60.6074C937.661 58.0836 937.023 55.3515 937.023 52.4112C937.023 49.0298 937.771 46.0649 939.265 43.5166C940.785 40.9438 942.904 38.9468 945.624 37.5257C948.368 36.08 951.578 35.3572 955.254 35.3572C959.027 35.3572 962.274 36.0923 964.993 37.5624C967.713 39.0081 969.808 40.9316 971.278 43.3328C972.749 45.7096 973.484 48.2947 973.484 51.088C973.484 54.6899 972.589 57.814 970.801 60.4603C969.012 63.1066 966.574 65.5692 963.487 67.8479L948.491 79.0212C945.109 81.5205 942.818 83.9463 941.618 86.2986C940.417 88.6509 939.817 90.3416 939.817 91.3707C939.817 93.7229 940.429 95.9159 941.654 97.9497C942.88 99.9834 944.607 101.625 946.837 102.875C949.067 104.124 951.676 104.749 954.665 104.749C957.508 104.749 960.277 104.149 962.972 102.948C965.667 101.723 968.105 99.9589 970.286 97.6557C972.491 95.3524 974.231 92.5836 975.505 89.3492C976.804 86.1148 977.453 82.4761 977.453 78.4332H985.833C985.833 83.4318 985.257 87.5115 984.106 90.6723C982.954 93.8332 981.655 96.308 980.21 98.0967C978.764 99.8854 977.6 101.221 976.718 102.103C976.424 102.47 976.154 102.838 975.909 103.206C975.664 103.573 975.395 103.941 975.101 104.308C972.675 107.028 969.612 109.062 965.912 110.409C962.212 111.733 958.561 112.394 954.96 112.394ZM490.496 236.365V161.092H516.812C522.056 161.092 526.38 161.999 529.786 163.812C533.192 165.601 535.728 168.014 537.394 171.053C539.061 174.067 539.894 177.411 539.894 181.087C539.894 184.321 539.318 186.992 538.166 189.099C537.039 191.206 535.544 192.872 533.682 194.098C531.844 195.323 529.847 196.229 527.691 196.817V197.552C529.994 197.7 532.31 198.508 534.638 199.978C536.966 201.448 538.914 203.556 540.482 206.3C542.05 209.044 542.834 212.401 542.834 216.371C542.834 220.144 541.976 223.538 540.261 226.552C538.546 229.565 535.838 231.954 532.138 233.719C528.439 235.483 523.624 236.365 517.694 236.365H490.496ZM499.611 228.279H517.694C523.648 228.279 527.875 227.127 530.374 224.824C532.898 222.496 534.16 219.679 534.16 216.371C534.16 213.822 533.511 211.47 532.212 209.314C530.913 207.133 529.063 205.393 526.662 204.095C524.261 202.772 521.419 202.11 518.135 202.11H499.611V228.279ZM499.611 194.171H516.518C519.262 194.171 521.737 193.632 523.942 192.554C526.172 191.476 527.936 189.957 529.235 187.996C530.558 186.036 531.22 183.733 531.22 181.087C531.22 177.779 530.068 174.973 527.765 172.67C525.461 170.342 521.811 169.178 516.812 169.178H499.611V194.171ZM560.899 236.365H551.343L578.982 161.092H588.391L616.03 236.365H606.474L583.98 173.001H583.392L560.899 236.365ZM564.427 206.962H602.946V215.048H564.427V206.962ZM675.673 184.615C674.864 182.14 673.799 179.923 672.475 177.962C671.177 175.978 669.621 174.287 667.808 172.89C666.019 171.494 663.985 170.428 661.706 169.693C659.428 168.958 656.928 168.59 654.209 168.59C649.749 168.59 645.694 169.742 642.043 172.045C638.392 174.348 635.488 177.742 633.332 182.226C631.176 186.71 630.098 192.211 630.098 198.729C630.098 205.246 631.188 210.747 633.369 215.231C635.55 219.715 638.502 223.109 642.227 225.412C645.951 227.715 650.141 228.867 654.797 228.867C659.109 228.867 662.907 227.948 666.19 226.111C669.498 224.248 672.071 221.627 673.909 218.245C675.771 214.839 676.702 210.833 676.702 206.226L679.496 206.815H656.855V198.729H685.523V206.815C685.523 213.014 684.2 218.404 681.554 222.986C678.932 227.568 675.306 231.121 670.674 233.645C666.068 236.144 660.775 237.394 654.797 237.394C648.132 237.394 642.276 235.826 637.228 232.69C632.205 229.553 628.285 225.094 625.467 219.311C622.673 213.528 621.277 206.668 621.277 198.729C621.277 192.774 622.073 187.421 623.666 182.667C625.283 177.889 627.562 173.821 630.502 170.465C633.442 167.108 636.922 164.535 640.94 162.746C644.959 160.957 649.382 160.063 654.209 160.063C658.178 160.063 661.878 160.663 665.308 161.864C668.763 163.04 671.838 164.719 674.534 166.899C677.254 169.056 679.52 171.641 681.333 174.655C683.146 177.644 684.396 180.964 685.082 184.615H675.673ZM750.532 161.092H759.647V210.931C759.647 216.077 758.434 220.671 756.009 224.714C753.607 228.732 750.214 231.905 745.828 234.233C741.442 236.537 736.296 237.688 730.391 237.688C724.486 237.688 719.34 236.537 714.954 234.233C710.568 231.905 707.162 228.732 704.737 224.714C702.335 220.671 701.135 216.077 701.135 210.931V161.092H710.25V210.196C710.25 213.871 711.058 217.143 712.675 220.009C714.293 222.852 716.596 225.094 719.585 226.735C722.599 228.353 726.201 229.161 730.391 229.161C734.581 229.161 738.183 228.353 741.197 226.735C744.211 225.094 746.514 222.852 748.107 220.009C749.724 217.143 750.532 213.871 750.532 210.196V161.092ZM777.85 236.365V161.092H823.278V169.178H786.965V194.612H820.926V202.698H786.965V228.279H823.866V236.365H777.85ZM835.591 169.178V161.092H892.045V169.178H868.376V236.365H859.261V169.178H835.591ZM901.997 169.178V161.092H958.451V169.178H934.781V236.365H925.666V169.178H901.997ZM972.519 236.365V161.092H1017.95V169.178H981.634V194.612H1015.59V202.698H981.634V228.279H1018.54V236.365H972.519Z" fill="#2A1F1B"/>
</svg>
